<svg width="24" height="24" viewBox="0 0 24 24" fill="none" xmlns="http://www.w3.org/2000/svg">
<path d="M19 9C19 10.45 18.57 11.78 17.83 12.89C17.2878 13.6987 16.5825 14.3852 15.7593 14.9053C14.9361 15.4254 14.0133 15.7676 13.05 15.91C12.71 15.97 12.36 16 12 16C11.64 16 11.29 15.97 10.95 15.91C9.98681 15.7676 9.06399 15.4254 8.24082 14.9053C7.41764 14.3852 6.71229 13.6987 6.17005 12.89C5.40235 11.7383 4.99504 10.3841 5.00005 9C5.00005 5.13 8.13005 2 12 2C15.87 2 19 5.13 19 9Z" fill="#BBBBBB"/>
<path d="M21.2502 18.468L19.6002 18.858C19.2302 18.948 18.9402 19.228 18.8602 19.598L18.5102 21.068C18.4672 21.2484 18.375 21.4134 18.2437 21.5444C18.1124 21.6754 17.9472 21.7673 17.7667 21.8099C17.5861 21.8524 17.3973 21.8439 17.2213 21.7853C17.0454 21.7267 16.8891 21.6203 16.7702 21.478L12.0002 15.998L7.23016 21.488C7.11118 21.6303 6.95497 21.7367 6.77899 21.7953C6.60301 21.8539 6.41419 21.8624 6.23365 21.8199C6.05311 21.7773 5.88796 21.6854 5.75666 21.5544C5.62537 21.4234 5.53309 21.2584 5.49016 21.078L5.14016 19.608C5.09762 19.4281 5.00587 19.2637 4.87518 19.133C4.74449 19.0023 4.58002 18.9105 4.40016 18.868L2.75016 18.478C2.57729 18.4366 2.41853 18.3499 2.29015 18.227C2.16178 18.104 2.06839 17.9491 2.01955 17.7782C1.97071 17.6072 1.96818 17.4264 2.01222 17.2542C2.05625 17.0819 2.14527 16.9245 2.27016 16.798L6.17016 12.898C6.71245 13.7067 7.41781 14.3931 8.24098 14.9132C9.06415 15.4333 9.98694 15.7755 10.9502 15.918C11.2902 15.978 11.6402 16.008 12.0002 16.008C12.3602 16.008 12.7102 15.978 13.0502 15.918C15.0402 15.628 16.7502 14.498 17.8302 12.898L21.7302 16.798C22.2802 17.338 22.0102 18.288 21.2502 18.468ZM12.5802 5.98L13.1702 7.16C13.2502 7.32 13.4602 7.48 13.6502 7.51L14.7202 7.69C15.4002 7.8 15.5602 8.3 15.0702 8.79L14.2402 9.62C14.1002 9.76 14.0202 10.03 14.0702 10.23L14.3102 11.26C14.5002 12.07 14.0702 12.39 13.3502 11.96L12.3502 11.37C12.2486 11.3158 12.1353 11.2875 12.0202 11.2875C11.9051 11.2875 11.7917 11.3158 11.6902 11.37L10.6902 11.96C9.97016 12.38 9.54016 12.07 9.73016 11.26L9.97016 10.23C10.0102 10.04 9.94016 9.76 9.80016 9.62L8.97016 8.79C8.48016 8.3 8.64016 7.81 9.32016 7.69L10.3902 7.51C10.5702 7.48 10.7802 7.32 10.8602 7.16L11.4502 5.98C11.7402 5.34 12.2602 5.34 12.5802 5.98Z" fill="#515151"/>
</svg>
