<svg width="487" height="445" viewBox="0 0 487 445" fill="none" xmlns="http://www.w3.org/2000/svg">
<path d="M426.221 0.241699H0.182129V273.096H426.221V0.241699Z" fill="#ABE9D2"/>
<path d="M414.039 34.4636H12.3652V138.478H414.039V34.4636Z" fill="white"/>
<path d="M197.222 49.4878H112.277V54.364H197.222V49.4878Z" fill="#FFE663"/>
<path d="M243.45 67.2751H112.277V72.1513H243.45V67.2751Z" fill="#30A8B9"/>
<path d="M219.18 84.0327H112.277V88.9089H219.18V84.0327Z" fill="#FF637F"/>
<path d="M174.685 100.728H112.277V105.604H174.685V100.728Z" fill="#E6E6E6"/>
<path d="M206.468 117.422H112.277V122.299H206.468V117.422Z" fill="#E6E6E6"/>
<path d="M83.9625 47.7549H73.561V58.1563H83.9625V47.7549Z" fill="#FFE663"/>
<path d="M83.9625 64.5122H73.561V74.9136H83.9625V64.5122Z" fill="#30A8B9"/>
<path d="M83.9625 81.2705H73.561V91.6719H83.9625V81.2705Z" fill="#FF637F"/>
<path d="M83.9625 98.0288H73.561V108.43H83.9625V98.0288Z" fill="#E6E6E6"/>
<path d="M83.9625 114.786H73.561V125.188H83.9625V114.786Z" fill="#E6E6E6"/>
<path d="M357.866 71.447H323.195V106.118H357.866V71.447Z" fill="#E6E6E6"/>
<path d="M414.039 152.924H12.3652V256.939H414.039V152.924Z" fill="white"/>
<path d="M101.874 162.169H91.4727V172.571H101.874V162.169Z" fill="#30A8B9"/>
<path d="M83.9971 178.329H73.5957V188.73H83.9971V178.329Z" fill="#FF637F"/>
<path d="M73.561 161.886H73.278V162.169V172.571V172.854H73.561H83.9625H84.2455V172.571V162.169V161.886H83.9625H73.561Z" fill="#FFE663" stroke="#009AFF" stroke-width="0.566124"/>
<path d="M249.918 184.915C246.747 179.548 242.348 175.01 237.083 171.674C231.817 168.338 225.835 166.299 219.627 165.726C213.42 165.152 207.166 166.061 201.378 168.375C195.59 170.69 190.434 174.346 186.335 179.041L183.8 176.826C188.249 171.728 193.845 167.76 200.127 165.246C206.41 162.733 213.199 161.747 219.937 162.369C226.674 162.991 233.168 165.204 238.884 168.826C244.599 172.447 249.374 177.374 252.814 183.2L249.918 184.915Z" fill="#E6E6E6"/>
<path d="M251.504 228.766L248.71 226.888C252.848 220.717 255.157 213.502 255.37 206.076C255.584 198.649 253.694 191.313 249.918 184.915L252.815 183.2C256.915 190.146 258.967 198.11 258.735 206.172C258.503 214.235 255.997 222.067 251.504 228.766Z" fill="#30A8B9"/>
<path d="M184.151 233.457C177.193 225.686 173.316 215.639 173.252 205.208C173.187 194.777 176.939 184.683 183.8 176.826L186.335 179.041C180.014 186.279 176.558 195.578 176.618 205.187C176.677 214.796 180.248 224.052 186.658 231.211L184.151 233.457Z" fill="#FF637F"/>
<path d="M216.003 247.907H216.003C223.055 247.91 229.999 246.176 236.222 242.859C242.445 239.541 247.754 234.742 251.682 228.885L251.8 228.709L251.624 228.59L248.83 226.712L248.654 226.593L248.536 226.77C245.21 231.726 240.796 235.857 235.63 238.847C230.464 241.837 224.683 243.607 218.729 244.021C212.774 244.436 206.804 243.485 201.273 241.24C195.743 238.995 190.799 235.516 186.818 231.069L186.676 230.911L186.518 231.052L184.011 233.298L183.853 233.44L183.994 233.598C188.026 238.096 192.96 241.695 198.475 244.161C203.99 246.626 209.962 247.902 216.003 247.907Z" fill="#FFE663" stroke="#009AFF" stroke-width="0.424593"/>
<path d="M357.866 184.707H323.195V219.378H357.866V184.707Z" fill="#E6E6E6"/>
<path d="M106.787 207.243H72.1152V241.914H106.787V207.243Z" fill="#E6E6E6"/>
<path d="M426.039 0H0V18.0997H426.039V0Z" fill="#004920"/>
<path d="M13.4513 12.6084C15.304 12.6084 16.806 11.1065 16.806 9.25381C16.806 7.40109 15.304 5.89917 13.4513 5.89917C11.5986 5.89917 10.0967 7.40109 10.0967 9.25381C10.0967 11.1065 11.5986 12.6084 13.4513 12.6084Z" fill="#FF0000"/>
<path d="M26.1837 12.6084C28.0365 12.6084 29.5384 11.1065 29.5384 9.25381C29.5384 7.40109 28.0365 5.89917 26.1837 5.89917C24.331 5.89917 22.8291 7.40109 22.8291 9.25381C22.8291 11.1065 24.331 12.6084 26.1837 12.6084Z" fill="#FAFF00"/>
<path d="M38.9171 12.6084C40.7699 12.6084 42.2718 11.1065 42.2718 9.25381C42.2718 7.40109 40.7699 5.89917 38.9171 5.89917C37.0644 5.89917 35.5625 7.40109 35.5625 9.25381C35.5625 11.1065 37.0644 12.6084 38.9171 12.6084Z" fill="#00FF0A"/>
<path d="M110.312 438.768H115.366L117.77 419.272L110.311 419.272L110.312 438.768Z" fill="#FFB8B8"/>
<path d="M123.461 438.976C122.874 438.383 122.175 437.914 121.405 437.594C120.634 437.278 119.809 437.116 118.976 437.116L115.998 434.859L115.84 434.921L110.447 437.116H109.022V443.666H125.321V443.46C125.323 442.627 125.16 441.801 124.841 441.031C124.522 440.262 124.053 439.563 123.461 438.976Z" fill="#2F2E41"/>
<path d="M133.793 438.768H138.848L141.252 419.272L133.792 419.272L133.793 438.768Z" fill="#FFB8B8"/>
<path d="M146.946 438.976C146.358 438.382 145.657 437.912 144.885 437.594C144.115 437.277 143.289 437.115 142.456 437.116L139.482 434.859L139.32 434.926L133.927 437.116H132.502L132.507 443.666H148.801V443.46C148.803 442.627 148.64 441.802 148.322 441.033C148.004 440.263 147.536 439.564 146.946 438.976Z" fill="#2F2E41"/>
<path d="M137.833 332.079L98.1216 333.115L98.8122 352.453C98.8122 352.453 98.1216 357.633 99.5028 359.014C100.884 360.396 101.575 360.396 100.884 362.813C100.193 365.23 103.842 369.178 103.399 369.621C102.956 370.064 101.92 372.482 101.92 372.482L105.373 392.165C105.373 392.165 107.791 426.351 108.481 427.042C109.172 427.733 109.862 427.042 109.172 428.769C108.481 430.495 107.791 429.805 108.481 430.495C109.093 431.155 109.669 431.847 110.208 432.567H118.557C118.557 432.567 119.186 429.114 119.186 428.769C119.186 428.423 119.877 426.351 119.877 426.006C119.877 425.661 119.266 425.05 119.266 425.05C119.055 424.348 118.913 423.628 118.841 422.898C118.841 422.208 116.769 395.618 116.769 395.618L120.913 361.086L130.927 394.927C130.927 394.927 130.927 424.625 131.618 425.315C132.308 426.006 132.308 425.661 131.963 427.042C131.618 428.423 130.236 428.078 131.272 429.114C132.308 430.15 132.654 428.423 132.308 430.15L131.963 431.877L142.322 432.025C142.322 432.025 143.704 429.114 143.013 428.078C142.322 427.042 142.364 427.325 143.206 425.63C144.049 423.934 144.394 423.589 144.049 423.244C143.704 422.898 143.704 421.062 143.704 421.062L141.977 388.021C141.977 388.021 141.632 353.144 141.632 352.108C141.606 351.575 141.704 351.043 141.919 350.554V349.148L140.596 344.166L137.833 332.079Z" fill="#2F2E41"/>
<path d="M182.775 256.764C182.585 257.295 182.28 257.777 181.882 258.177C181.485 258.577 181.005 258.885 180.476 259.079C179.946 259.273 179.381 259.349 178.819 259.301C178.258 259.253 177.713 259.083 177.225 258.802L159.987 273.244L159.05 266.184L175.91 253.278C176.437 252.488 177.234 251.919 178.153 251.678C179.071 251.438 180.045 251.542 180.891 251.972C181.738 252.402 182.397 253.127 182.744 254.01C183.091 254.893 183.102 255.873 182.775 256.764Z" fill="#FFB8B8"/>
<path d="M106.764 262.725C112.677 262.725 117.469 257.932 117.469 252.02C117.469 246.108 112.677 241.315 106.764 241.315C100.852 241.315 96.0596 246.108 96.0596 252.02C96.0596 257.932 100.852 262.725 106.764 262.725Z" fill="#FFB8B8"/>
<path d="M115.443 241.366C114.446 238.99 110.175 237.58 103.417 237.793C96.6584 238.005 95.4749 246.064 95.4749 246.064C91.7524 249.534 97.7623 260.367 98.805 258.873C99.8476 257.38 101.598 258.791 101.598 258.791L99.9299 249.408C101.692 250.085 103.586 250.541 105.244 249.751L102.498 248.283L109.325 249.132L106.509 246.966C106.578 246.944 106.646 246.92 106.714 246.897C107.843 247.384 109.052 247.659 110.281 247.707C111.716 247.697 113.241 247.024 113.843 245.721C114.003 245.363 114.089 244.977 114.098 244.585C116.077 245.227 117.116 247.546 117.116 247.546C116.74 245.441 116.18 243.373 115.443 241.366Z" fill="#2F2E41"/>
<path d="M115.333 263.204C112.942 263.204 111.403 263.534 107.683 264.16C100.817 265.317 104.929 271.841 104.929 271.841C104.929 271.841 105.24 271.683 104.398 271.841C103.557 271.998 100.688 274.48 100.688 274.48L95.558 279.036C87.8268 285.104 89.5576 294.57 89.5576 294.57L100.832 305.916L95.8927 328.679C95.8927 328.679 97.9916 332.059 96.9063 333.575C95.8209 335.091 106.469 334.656 106.469 334.656C113.817 337.931 139.707 335.162 139.707 335.162C139.349 334.225 135.882 326.963 135.882 326.963C137.388 324.362 135.954 320.604 135.954 320.604C135.954 320.604 134.458 302.827 133.501 300.37C132.545 297.912 135.949 284.597 138.187 284.74C140.424 284.884 154.878 277.511 154.878 277.511C154.878 277.511 154.514 276.933 159.286 274.982C162.027 273.905 164.54 272.32 166.692 270.311L168.652 266.395C167.711 266.758 164.531 260.763 164.531 260.763L163.145 261.291L162.341 261.059C162.341 261.059 156.073 262.842 154.792 264.143C153.51 265.443 153.08 265.08 151.923 265.372C150.766 265.663 150.623 266.476 150.259 266.385C149.896 266.294 149.25 267.394 148.744 267.251C148.237 267.107 147.151 267.686 146.43 267.829C145.708 267.973 140.577 270.143 140.577 270.143C137.403 268.537 128.797 269.187 128.797 269.187C128.797 269.187 125.98 267.528 125.182 269.187C124.967 269.658 124.622 270.059 124.188 270.341C123.753 270.623 123.247 270.775 122.729 270.779L119.296 269.311C119.097 270.04 115.353 262.449 115.333 263.204Z" fill="#3F3D56"/>
<path d="M76.9463 417.667L76.4693 406.94C71.4964 404.282 65.9497 402.878 60.311 402.85C68.0716 409.195 67.1017 421.426 72.3632 429.958C74.0246 432.606 76.2607 434.847 78.9058 436.514C81.5509 438.181 84.5372 439.231 87.6434 439.587L94.1377 443.563C95.0288 438.595 94.8324 433.493 93.5618 428.609C92.2913 423.724 89.9769 419.173 86.7781 415.269C84.9619 413.096 82.8794 411.161 80.5796 409.509C79.0243 413.611 76.9463 417.667 76.9463 417.667Z" fill="#16342F"/>
<path d="M49.5361 443.838C49.5359 443.913 49.5505 443.987 49.579 444.056C49.6075 444.125 49.6494 444.188 49.7023 444.241C49.7552 444.294 49.818 444.336 49.8871 444.364C49.9563 444.393 50.0303 444.407 50.1051 444.407H185.551C185.702 444.407 185.846 444.347 185.953 444.24C186.06 444.134 186.12 443.989 186.12 443.838C186.12 443.687 186.06 443.542 185.953 443.436C185.846 443.329 185.702 443.269 185.551 443.269H50.1051C50.0303 443.269 49.9563 443.283 49.8871 443.312C49.818 443.34 49.7552 443.382 49.7023 443.435C49.6494 443.488 49.6075 443.551 49.579 443.62C49.5505 443.689 49.5359 443.763 49.5361 443.838Z" fill="black"/>
<path d="M122.739 350.882V320.087C122.739 319.464 122.987 318.866 123.428 318.425C123.869 317.985 124.466 317.737 125.09 317.736H148.347C148.97 317.737 149.568 317.985 150.009 318.425C150.449 318.866 150.697 319.464 150.698 320.087V350.882C150.697 351.506 150.449 352.103 150.009 352.544C149.568 352.985 148.97 353.232 148.347 353.233H125.09C124.466 353.232 123.869 352.985 123.428 352.544C122.987 352.103 122.739 351.506 122.739 350.882Z" fill="#E6E6E6"/>
<path d="M124.523 341.581V321.783C124.524 321.2 124.756 320.64 125.169 320.227C125.581 319.814 126.141 319.582 126.725 319.582H146.712C147.296 319.582 147.856 319.814 148.268 320.227C148.681 320.64 148.913 321.2 148.914 321.783V349.187C148.913 349.771 148.681 350.33 148.268 350.743C147.856 351.156 147.296 351.388 146.712 351.389H134.33C131.73 351.386 129.237 350.351 127.399 348.513C125.56 346.674 124.526 344.181 124.523 341.581Z" fill="white"/>
<path d="M127.759 327.307C127.759 326.737 127.986 326.19 128.39 325.787C128.793 325.383 129.34 325.156 129.91 325.156H143.776C144.346 325.156 144.894 325.382 145.297 325.786C145.701 326.189 145.927 326.737 145.927 327.307C145.927 327.878 145.701 328.425 145.297 328.829C144.894 329.232 144.346 329.459 143.776 329.459H129.91C129.34 329.458 128.793 329.231 128.39 328.828C127.986 328.425 127.759 327.878 127.759 327.307Z" fill="#E6E6E6"/>
<path d="M127.759 334.001C127.759 333.43 127.986 332.883 128.39 332.48C128.793 332.077 129.34 331.85 129.91 331.849H143.776C144.346 331.849 144.894 332.076 145.297 332.479C145.701 332.883 145.927 333.43 145.927 334.001C145.927 334.571 145.701 335.118 145.297 335.522C144.894 335.925 144.346 336.152 143.776 336.152H129.91C129.34 336.152 128.793 335.925 128.39 335.521C127.986 335.118 127.759 334.571 127.759 334.001Z" fill="#E6E6E6"/>
<path d="M127.759 340.694C127.759 340.124 127.986 339.577 128.39 339.174C128.793 338.77 129.34 338.544 129.91 338.543H143.776C144.346 338.543 144.894 338.77 145.297 339.173C145.701 339.577 145.927 340.124 145.927 340.694C145.927 341.265 145.701 341.812 145.297 342.216C144.894 342.619 144.346 342.846 143.776 342.846H129.91C129.34 342.845 128.793 342.619 128.39 342.215C127.986 341.812 127.759 341.265 127.759 340.694Z" fill="#E6E6E6"/>
<path d="M123.289 340.124C122.766 340.134 122.247 340.029 121.769 339.817C121.291 339.604 120.865 339.289 120.522 338.895C120.179 338.5 119.927 338.035 119.783 337.532C119.639 337.029 119.607 336.501 119.689 335.984L99.833 325.112L105.644 321.969L124.045 333.021C124.904 333.216 125.66 333.72 126.172 334.437C126.684 335.153 126.915 336.033 126.822 336.908C126.729 337.784 126.318 338.595 125.666 339.188C125.015 339.781 124.169 340.114 123.289 340.124Z" fill="#FFB8B8"/>
<path d="M111.742 332.088L104.701 330.837L102.18 328.741L100.484 327.878L94.6404 323.776L94.623 323.724L85.3373 296.276C84.911 294.022 85.3624 291.69 86.5992 289.758C87.836 287.826 89.7646 286.439 91.9901 285.883C93.2208 285.577 94.5023 285.535 95.7504 285.759C96.9985 285.984 98.1848 286.471 99.2313 287.187C100.278 287.904 101.161 288.834 101.822 289.916C102.483 290.998 102.907 292.208 103.067 293.466L106.056 316.99L111.009 322.106L113.177 322.526L113.676 324.86L115.567 327.785L111.742 332.088Z" fill="#3F3D56"/>
<path d="M486.867 257.586C486.867 258.386 486.857 259.186 486.838 259.984C486.83 260.505 486.814 261.027 486.794 261.549C486.79 261.698 486.786 261.844 486.778 261.993C486.766 262.28 486.753 262.563 486.741 262.843C486.652 264.707 486.515 266.557 486.329 268.395C486.321 268.484 486.313 268.572 486.305 268.657C486.284 268.839 486.268 269.021 486.244 269.203C486.187 269.749 486.127 270.295 486.058 270.833C486.013 271.197 485.969 271.557 485.92 271.921C485.896 272.095 485.872 272.268 485.852 272.438C485.823 272.628 485.799 272.814 485.771 273C485.759 273.081 485.747 273.162 485.734 273.247C485.694 273.522 485.654 273.801 485.609 274.076C485.557 274.436 485.5 274.792 485.439 275.152C485.383 275.507 485.322 275.863 485.257 276.219C485.197 276.575 485.132 276.931 485.067 277.287C485.002 277.647 484.934 278.002 484.865 278.358C484.517 280.121 484.129 281.87 483.7 283.603C483.531 284.278 483.357 284.952 483.179 285.625C482.884 286.717 482.572 287.803 482.245 288.884C482.152 289.183 482.059 289.483 481.966 289.778C481.861 290.117 481.751 290.457 481.642 290.793C481.533 291.132 481.424 291.468 481.311 291.804C481.197 292.139 481.084 292.475 480.967 292.811C480.854 293.142 480.736 293.478 480.615 293.809C480.498 294.145 480.376 294.477 480.255 294.808C480.13 295.14 480.008 295.471 479.883 295.799C479.632 296.462 479.375 297.119 479.111 297.768C478.981 298.096 478.848 298.423 478.71 298.747C478.173 300.049 477.609 301.336 477.02 302.609C476.891 302.892 476.761 303.175 476.628 303.454C476.539 303.64 476.454 303.822 476.365 304.008C476.215 304.315 476.07 304.618 475.92 304.922C475.771 305.229 475.617 305.54 475.459 305.852C475.148 306.466 474.831 307.08 474.509 307.692C474.19 308.302 473.862 308.913 473.526 309.515C473.191 310.118 472.851 310.72 472.507 311.315C472.333 311.614 472.16 311.913 471.986 312.208C471.286 313.393 470.564 314.565 469.818 315.722C469.078 316.875 468.314 318.014 467.525 319.139C467.133 319.701 466.733 320.264 466.329 320.818C466.167 321.04 466.005 321.258 465.843 321.477C465.645 321.752 465.439 322.023 465.233 322.293C456.469 333.95 445.425 343.701 432.773 350.954C420.12 358.206 406.125 362.808 391.637 364.479C377.15 366.151 362.474 364.856 348.503 360.675C334.532 356.494 321.557 349.514 310.37 340.159C309.189 339.172 308.03 338.161 306.892 337.126C299.592 330.478 293.237 322.862 288.004 314.489C287.353 313.442 286.714 312.382 286.099 311.315C276.663 294.983 271.71 276.448 271.74 257.586C271.74 198.179 319.897 150.022 379.303 150.022C397.179 150.011 414.775 154.459 430.498 162.963C446.221 171.467 459.574 183.759 469.349 198.725C469.527 198.996 469.705 199.271 469.883 199.546C479.602 214.671 485.35 232.003 486.596 249.939C486.778 252.462 486.868 255.011 486.867 257.586Z" fill="#60D394"/>
<path d="M469.883 199.546H320.891C320.784 199.543 320.682 199.499 320.607 199.422C320.533 199.345 320.491 199.242 320.491 199.135C320.491 199.028 320.533 198.925 320.607 198.849C320.682 198.772 320.784 198.727 320.891 198.725H469.349C469.527 198.996 469.705 199.271 469.883 199.546Z" fill="#3F3D56"/>
<path d="M329.93 193.799C332.37 193.799 334.348 191.777 334.348 189.283C334.348 186.789 332.37 184.767 329.93 184.767C327.49 184.767 325.512 186.789 325.512 189.283C325.512 191.777 327.49 193.799 329.93 193.799Z" fill="#3F3D56"/>
<path d="M345.191 193.799C347.631 193.799 349.609 191.777 349.609 189.283C349.609 186.789 347.631 184.767 345.191 184.767C342.751 184.767 340.773 186.789 340.773 189.283C340.773 191.777 342.751 193.799 345.191 193.799Z" fill="#3F3D56"/>
<path d="M360.454 193.799C362.894 193.799 364.872 191.777 364.872 189.283C364.872 186.789 362.894 184.767 360.454 184.767C358.014 184.767 356.036 186.789 356.036 189.283C356.036 191.777 358.014 193.799 360.454 193.799Z" fill="#3F3D56"/>
<path d="M486.595 249.939C482.709 251.706 479.228 254.561 476.187 258.487C472.673 263.029 468.908 266.227 465.062 268.395C464.881 268.496 464.703 268.593 464.521 268.69C461.073 270.548 457.293 271.706 453.396 272.099C452.219 272.217 451.037 272.274 449.854 272.268C449.361 272.264 448.867 272.252 448.378 272.228C447.217 272.171 446.069 272.058 444.941 271.896C438.463 270.975 432.603 268.484 428.264 266.142C422.319 262.863 415.866 260.605 409.174 259.462C407.977 259.264 406.783 259.109 405.591 258.997C405.098 258.948 404.609 258.912 404.119 258.88C402.918 258.799 401.719 258.761 400.52 258.766C399.906 258.771 399.295 258.783 398.68 258.807C388.353 259.211 374.883 262.155 362.804 272.438C362.643 272.576 362.485 272.713 362.323 272.851C362.174 272.98 362.024 273.114 361.874 273.247C359.963 274.947 358.161 276.766 356.48 278.694C354.553 280.902 352.77 283.232 351.142 285.669C349.209 288.523 346.951 291.142 344.414 293.474C340.66 296.938 337.655 301.132 335.581 305.799C333.507 310.467 332.41 315.508 332.355 320.615V320.818C332.351 321.036 332.351 321.258 332.351 321.477H465.847C466.009 321.258 466.17 321.04 466.328 320.818C466.733 320.264 467.133 319.702 467.525 319.139C468.314 318.015 469.078 316.876 469.818 315.723C470.566 314.566 471.288 313.395 471.985 312.208C472.159 311.913 472.333 311.614 472.507 311.315C472.851 310.72 473.19 310.118 473.526 309.515C473.862 308.913 474.189 308.302 474.509 307.692C474.832 307.081 475.149 306.468 475.459 305.852C475.617 305.54 475.77 305.229 475.92 304.922C476.07 304.618 476.215 304.315 476.365 304.008C476.454 303.822 476.539 303.64 476.628 303.454C476.761 303.175 476.89 302.892 477.02 302.609C477.61 301.335 478.174 300.048 478.71 298.747C478.848 298.423 478.981 298.096 479.11 297.768C479.373 297.117 479.631 296.461 479.883 295.799C480.008 295.471 480.129 295.14 480.255 294.808C480.376 294.477 480.497 294.145 480.615 293.809C480.736 293.478 480.853 293.142 480.967 292.811C481.084 292.475 481.197 292.139 481.31 291.804C481.423 291.468 481.533 291.133 481.642 290.793C481.751 290.457 481.86 290.118 481.965 289.778C482.058 289.483 482.151 289.183 482.244 288.884C482.572 287.805 482.883 286.718 483.178 285.625C483.356 284.954 483.53 284.28 483.7 283.603C484.129 281.872 484.517 280.124 484.865 278.358C484.933 278.003 485.002 277.647 485.067 277.287C485.132 276.931 485.196 276.575 485.257 276.219C485.322 275.863 485.382 275.508 485.439 275.152C485.5 274.792 485.556 274.436 485.609 274.076C485.653 273.801 485.694 273.522 485.734 273.247C485.746 273.162 485.758 273.081 485.77 273C485.799 272.81 485.823 272.624 485.847 272.438C485.872 272.264 485.896 272.091 485.92 271.921C485.969 271.557 486.013 271.197 486.058 270.833C486.126 270.295 486.187 269.749 486.244 269.203H486.248C486.264 269.021 486.284 268.839 486.304 268.657C486.312 268.573 486.32 268.484 486.328 268.395C486.514 266.559 486.652 264.708 486.741 262.843C486.753 262.564 486.765 262.281 486.777 261.993C486.785 261.844 486.789 261.698 486.794 261.549C486.814 261.027 486.83 260.505 486.838 259.984C486.858 259.187 486.868 258.388 486.866 257.586C486.866 255.014 486.776 252.465 486.595 249.939Z" fill="#FFE663"/>
<path d="M361.424 277.058H359.948V320.302H361.424V277.058Z" fill="#3F3D56"/>
<path d="M405.593 256.863H404.118V320.302H405.593V256.863Z" fill="#3F3D56"/>
<path d="M449.853 270.14H448.378V320.302H449.853V270.14Z" fill="#3F3D56"/>
<path d="M404.946 262.393C407.439 262.393 409.46 260.372 409.46 257.879C409.46 255.387 407.439 253.366 404.946 253.366C402.454 253.366 400.433 255.387 400.433 257.879C400.433 260.372 402.454 262.393 404.946 262.393Z" fill="#3F3D56"/>
<path d="M449.207 274.933C451.699 274.933 453.72 272.912 453.72 270.42C453.72 267.927 451.699 265.906 449.207 265.906C446.714 265.906 444.693 267.927 444.693 270.42C444.693 272.912 446.714 274.933 449.207 274.933Z" fill="#3F3D56"/>
<path d="M359.877 277.933C362.37 277.933 364.39 275.912 364.39 273.419C364.39 270.927 362.37 268.906 359.877 268.906C357.384 268.906 355.364 270.927 355.364 273.419C355.364 275.912 357.384 277.933 359.877 277.933Z" fill="#3F3D56"/>
<path d="M466.328 320.818C466.166 321.04 466.004 321.258 465.842 321.477C465.644 321.752 465.438 322.023 465.232 322.294H332.205V320.818H466.328Z" fill="#3F3D56"/>
<path d="M367.778 272.438V273.247H372.679V272.438H367.778ZM377.58 272.438V273.247H382.477V272.438H377.58ZM387.378 272.438V273.247H392.279V272.438H387.378ZM397.176 272.438V273.247H402.077V272.438H397.176ZM406.978 272.438V273.247H411.875V272.438H406.978ZM416.776 272.438V273.247H421.677V272.438H416.776ZM426.574 272.438V273.247H431.475V272.438H426.574ZM436.376 272.438V273.247H441.273V272.438H436.376ZM446.174 272.438V273.247H451.075V272.438H446.174ZM455.972 272.438V273.247H460.873V272.438H455.972ZM465.77 272.438V273.247H470.671V272.438H465.77ZM475.572 272.438V273.247H480.469V272.438H475.572ZM485.37 272.438V273.247H485.734C485.746 273.162 485.758 273.081 485.77 273.001C485.798 272.815 485.823 272.629 485.851 272.438H485.37Z" fill="#3F3D56"/>
<path d="M409.833 256.264V257.072H414.734V256.264H409.833ZM419.635 256.264V257.072H424.531V256.264H419.635ZM429.433 256.264V257.072H434.334V256.264H429.433ZM439.23 256.264V257.072H444.132V256.264H439.23ZM449.033 256.264V257.072H453.929V256.264H449.033ZM458.83 256.264V257.072H463.731V256.264H458.83ZM468.628 256.264V257.072H473.529V256.264H468.628ZM478.43 256.264V257.072H483.327V256.264H478.43Z" fill="#3F3D56"/>
<path d="M454.719 268.395V269.203H459.62V268.395H454.719ZM464.521 268.395V269.203H469.418V268.395H464.521ZM474.319 268.395V269.203H479.22V268.395H474.319ZM484.117 268.395V269.203H486.248C486.264 269.021 486.284 268.839 486.304 268.657C486.312 268.572 486.321 268.483 486.329 268.395H484.117Z" fill="#3F3D56"/>
<rect x="249.094" y="233.625" width="50.9868" height="53.9419" transform="rotate(-29.2294 249.094 233.625)" fill="#60D394"/>
</svg>
