<svg width="23" height="23" viewBox="0 0 23 23" fill="none" xmlns="http://www.w3.org/2000/svg">
<g clip-path="url(#clip0_212_13)">
<path d="M6.65071 19.7704C8.07863 20.6042 9.73654 21.0834 11.4999 21.0834C16.8953 21.0834 21.3803 16.3204 21.064 10.9346C20.7382 5.37627 15.6878 1.09252 9.87071 2.05086C5.86488 2.71211 2.65446 5.96086 2.03154 9.96669C1.66738 12.2859 2.14654 14.4804 3.19113 16.2917L2.33821 19.4638C2.14654 20.1825 2.80779 20.8342 3.51696 20.6329L6.65071 19.7704Z" fill="#E0E0E0"/>
<path d="M6.98438 11.3301C6.98438 11.1159 7.05046 10.9359 7.18262 10.79C7.31934 10.6396 7.5153 10.5645 7.77051 10.5645C8.02572 10.5645 8.2194 10.6396 8.35156 10.79C8.48828 10.9359 8.55664 11.1159 8.55664 11.3301C8.55664 11.5397 8.48828 11.7174 8.35156 11.8633C8.2194 12.0091 8.02572 12.082 7.77051 12.082C7.5153 12.082 7.31934 12.0091 7.18262 11.8633C7.05046 11.7174 6.98438 11.5397 6.98438 11.3301ZM10.6758 11.3301C10.6758 11.1159 10.7419 10.9359 10.874 10.79C11.0107 10.6396 11.2067 10.5645 11.4619 10.5645C11.7171 10.5645 11.9108 10.6396 12.043 10.79C12.1797 10.9359 12.248 11.1159 12.248 11.3301C12.248 11.5397 12.1797 11.7174 12.043 11.8633C11.9108 12.0091 11.7171 12.082 11.4619 12.082C11.2067 12.082 11.0107 12.0091 10.874 11.8633C10.7419 11.7174 10.6758 11.5397 10.6758 11.3301ZM14.3672 11.3301C14.3672 11.1159 14.4333 10.9359 14.5654 10.79C14.7021 10.6396 14.8981 10.5645 15.1533 10.5645C15.4085 10.5645 15.6022 10.6396 15.7344 10.79C15.8711 10.9359 15.9395 11.1159 15.9395 11.3301C15.9395 11.5397 15.8711 11.7174 15.7344 11.8633C15.6022 12.0091 15.4085 12.082 15.1533 12.082C14.8981 12.082 14.7021 12.0091 14.5654 11.8633C14.4333 11.7174 14.3672 11.5397 14.3672 11.3301Z" fill="#515151"/>
</g>
<defs>
<clipPath id="clip0_212_13">
<rect width="23" height="23" fill="white"/>
</clipPath>
</defs>
</svg>
