<svg width="24" height="24" viewBox="0 0 24 24" fill="none" xmlns="http://www.w3.org/2000/svg">
<path d="M18.5099 1.80005C18.0099 1.80005 17.6099 2.20005 17.6099 2.70005V7.35005C17.6099 7.85005 18.0099 8.25005 18.5099 8.25005C19.0099 8.25005 19.4099 7.85005 19.4099 7.35005V2.70005C19.4099 2.20005 19.0099 1.80005 18.5099 1.80005Z" fill="#515151"/>
<path d="M12.0001 15.75C11.5001 15.75 11.1001 16.15 11.1001 16.65V21.3C11.1001 21.8 11.5001 22.2 12.0001 22.2C12.5001 22.2 12.9001 21.8 12.9001 21.3V16.65C12.9001 16.16 12.5001 15.75 12.0001 15.75Z" fill="#E0E0E0"/>
<path d="M5.48998 1.80005C4.98998 1.80005 4.58998 2.20005 4.58998 2.70005V7.35005C4.58998 7.85005 4.98998 8.25005 5.48998 8.25005C5.98998 8.25005 6.38998 7.85005 6.38998 7.35005V2.70005C6.38998 2.20005 5.97998 1.80005 5.48998 1.80005ZM7.34998 10.172H3.62998C3.12998 10.172 2.72998 10.572 2.72998 11.072C2.72998 11.572 3.12998 11.972 3.62998 11.972H4.58998V21.302C4.58998 21.802 4.98998 22.202 5.48998 22.202C5.98998 22.202 6.38998 21.802 6.38998 21.302V11.972H7.34998C7.84998 11.972 8.24998 11.572 8.24998 11.072C8.24998 10.572 7.83998 10.172 7.34998 10.172ZM20.37 10.172H16.65C16.15 10.172 15.75 10.572 15.75 11.072C15.75 11.572 16.15 11.972 16.65 11.972H17.61V21.302C17.61 21.802 18.01 22.202 18.51 22.202C19.01 22.202 19.41 21.802 19.41 21.302V11.972H20.37C20.87 11.972 21.27 11.572 21.27 11.072C21.27 10.572 20.87 10.172 20.37 10.172Z" fill="#515151"/>
<path d="M13.8602 12.03H12.9002V2.70005C12.9002 2.20005 12.5002 1.80005 12.0002 1.80005C11.5002 1.80005 11.1002 2.20005 11.1002 2.70005V12.03H10.1402C9.64023 12.03 9.24023 12.43 9.24023 12.93C9.24023 13.43 9.64023 13.83 10.1402 13.83H13.8602C14.3602 13.83 14.7602 13.43 14.7602 12.93C14.7602 12.43 14.3602 12.03 13.8602 12.03Z" fill="#E0E0E0"/>
</svg>
