<svg width="24" height="24" viewBox="0 0 24 24" fill="none" xmlns="http://www.w3.org/2000/svg">
<path d="M22 22H2C1.59 22 1.25 21.66 1.25 21.25C1.25 20.84 1.59 20.5 2 20.5H22C22.41 20.5 22.75 20.84 22.75 21.25C22.75 21.66 22.41 22 22 22Z" fill="#93D9B4"/>
<path d="M9.75 4V22H14.25V4C14.25 2.9 13.8 2 12.45 2H11.55C10.2 2 9.75 2.9 9.75 4Z" fill="#93D9B4"/>
<path d="M3 9.85714V21H7V9.85714C7 8.83571 6.6 8 5.4 8H4.6C3.4 8 3 8.83571 3 9.85714ZM17 14.5V21H21V14.5C21 13.4786 20.6 12.6429 19.4 12.6429H18.6C17.4 12.6429 17 13.4786 17 14.5Z" fill="#00AA56"/>
</svg>
