<svg width="111" height="145" viewBox="0 0 111 145" fill="none" xmlns="http://www.w3.org/2000/svg">
<g clip-path="url(#clip0_119_68)">
<g clip-path="url(#clip1_119_68)">
<path d="M69.138 32.0171C64.404 23.7719 59.696 15.526 54.8722 7.34459C54.4864 6.70123 53.2903 6.22568 52.4665 6.19965C48.0932 6.10993 43.7063 6.10993 39.3329 6.16107C38.1755 4.039 35.9115 2.5979 33.3257 2.5979C29.5572 2.5979 26.4957 5.6594 26.4957 9.42792C26.4957 13.1964 29.5572 16.2579 33.3257 16.2579C35.8858 16.2579 38.1236 14.8429 39.2943 12.746C42.4071 12.746 45.4436 12.746 48.4789 12.7846C49.3025 12.7972 50.4851 12.9389 50.871 13.4791C52.1442 15.2539 53.1223 17.2352 54.4601 19.5511H51.2183C44.0409 19.5511 36.8627 19.525 29.6854 19.5896C28.7719 19.6022 27.4601 19.7054 27.0222 20.2842C25.7741 21.9692 24.8866 23.9119 23.626 26.1756H26.7135C35.5123 26.1756 44.3109 26.381 53.0973 26.0724C56.9816 25.9441 59.5549 26.844 60.9825 30.6136C61.3172 31.501 62.4236 32.5302 63.3235 32.6845C65.2141 33.0058 67.1951 32.7877 69.1253 32.7877C69.1388 32.3499 69.2159 32.1318 69.1388 32.0161L69.138 32.0171ZM35.7964 12.7346C35.1019 13.2487 34.2397 13.5583 33.3135 13.5583C31.0237 13.5583 29.1717 11.6929 29.1717 9.4165C29.1717 7.12662 31.0372 5.2747 33.3135 5.2747C34.3553 5.2747 35.3073 5.66054 36.0278 6.29133C36.9026 7.05043 37.4553 8.16934 37.4553 9.41737C37.4679 10.766 36.8121 11.9756 35.7964 12.7346Z" fill="#417B5A"/>
<path d="M79.9251 93.5823C79.8599 93.6985 79.7963 93.8022 79.7185 93.9185C79.5119 93.7755 79.2794 93.6593 79.0469 93.5571C79.3438 93.5681 79.6274 93.5681 79.9251 93.5823Z" fill="#417B5A"/>
<path d="M46.3443 91.2923C42.2796 83.4969 38.3817 75.5992 34.047 67.9455C32.1304 64.5626 31.7447 61.8611 34.4203 58.8641C35.0502 58.1571 35.4495 56.69 35.1659 55.8412C34.5746 54.0143 33.4683 52.3678 32.5675 50.6577C32.1943 50.8246 31.9762 50.8632 31.8991 50.979C26.7791 58.98 21.6466 66.9811 16.6299 75.0473C16.2315 75.6907 16.3599 76.9765 16.7331 77.7105C18.6758 81.6205 20.6946 85.4928 22.753 89.3519C21.9427 90.4706 21.4663 91.8474 21.4663 93.3391C21.4663 97.1082 24.5278 100.169 28.2963 100.169C32.0648 100.169 35.1263 97.1082 35.1263 93.3391C35.1263 89.7115 32.2837 86.7273 28.6946 86.5217C27.2284 83.7041 25.7998 80.9646 24.3984 78.1996C24.0251 77.4665 23.6142 76.3475 23.9094 75.7553C24.8875 73.8127 26.1993 72.0254 27.6269 69.774C28.3089 71.0858 28.7208 71.8575 29.1317 72.6425C32.4507 79.0098 35.7564 85.3779 39.1266 91.7192C39.551 92.5291 40.259 93.6479 40.966 93.7511C43.0369 94.0724 45.1723 93.97 47.7575 94.0341C47.1544 92.8372 46.756 92.0647 46.3443 91.2923ZM30.4067 89.749C31.6288 90.4698 32.4516 91.8075 32.4516 93.325C32.4516 95.6149 30.5862 97.4663 28.3098 97.4663C26.0334 97.4663 24.168 95.6009 24.168 93.325C24.168 92.9005 24.2326 92.501 24.3483 92.1156C24.8625 90.4175 26.4453 89.1822 28.3098 89.1822C29.0815 89.183 29.8019 89.3886 30.4067 89.749Z" fill="#417B5A"/>
<path d="M104.114 49.5759C100.346 49.5759 97.2839 52.6374 97.2839 56.4058C97.2839 57.8595 97.7343 59.2099 98.5184 60.3161C97.1807 62.5288 95.8556 64.6894 94.5187 66.8376C94.0816 67.5321 93.335 68.4716 92.6791 68.5227C90.5049 68.6896 88.3056 68.4967 85.6295 68.4456C86.3886 67.1849 86.8522 66.4258 87.3151 65.6801C91.0326 59.5445 94.7759 53.408 98.4543 47.2473C98.9179 46.4631 99.5097 45.2796 99.2385 44.6103C98.441 42.6677 97.2448 40.9054 95.9588 38.6541C95.2512 39.8116 94.8009 40.5582 94.3631 41.2911C89.809 48.8167 85.0627 56.2379 80.7666 63.9052C78.8762 67.2881 76.7666 69.0251 72.8042 68.2921C71.8648 68.1252 70.4121 68.5362 69.8199 69.2181C68.5718 70.6717 67.7364 72.4725 66.7324 74.1317C67.0671 74.3632 67.208 74.5435 67.3497 74.5435C76.8429 74.775 86.3488 75.0191 95.8423 75.1349C96.5881 75.1474 97.6303 74.3632 98.0673 73.6687C100.254 70.234 102.363 66.7479 104.448 63.2496C108.049 63.0692 110.931 60.0849 110.931 56.432C110.945 52.6372 107.884 49.5757 104.115 49.5757L104.114 49.5759ZM106.391 59.8668C105.735 60.3038 104.964 60.5487 104.115 60.5487C102.249 60.5487 100.68 59.3141 100.153 57.629C100.037 57.2432 99.9726 56.8313 99.9726 56.4069C99.9726 54.3871 101.427 52.6893 103.355 52.3287C103.382 52.2902 103.407 52.239 103.445 52.187C103.471 52.2255 103.484 52.2641 103.51 52.3027C103.716 52.2767 103.922 52.2515 104.127 52.2515C106.417 52.2515 108.269 54.117 108.269 56.3933C108.256 57.8604 107.51 59.1338 106.391 59.8668Z" fill="#417B5A"/>
<path d="M79.0444 93.5547C79.2777 93.6584 79.5103 93.7746 79.7169 93.9168C79.7813 93.8131 79.8457 93.6969 79.9227 93.5806C79.6265 93.5673 79.3422 93.5673 79.0444 93.5547Z" fill="#417B5A"/>
<path d="M84.9762 80.3186C76.1907 80.036 67.3919 79.547 58.6059 79.573C54.7216 79.5856 52.1743 78.595 50.875 74.7878C50.5663 73.8869 49.486 72.82 48.5986 72.6523C46.7206 72.279 44.7393 72.4333 42.7968 72.3696C42.7581 72.7815 42.681 72.987 42.7456 73.1152C47.2097 81.5023 51.6601 89.9013 56.2138 98.2377C56.5737 98.8936 57.7572 99.4089 58.581 99.4605C62.7489 99.6794 66.9166 99.8076 71.0846 99.9108C72.0878 102.432 74.558 104.233 77.4392 104.233C81.2079 104.233 84.2695 101.171 84.2695 97.4027C84.2695 93.6344 81.2079 90.5728 77.4392 90.5728C75.1879 90.5728 73.1816 91.6666 71.9469 93.3514C68.8342 93.2482 65.7978 93.1458 62.7748 93.0168C61.9512 92.9785 60.7685 92.7979 60.4077 92.2451C59.1982 90.4321 58.2722 88.4244 57.0249 86.0571C58.5045 86.1087 59.3785 86.1345 60.2667 86.1603C67.444 86.3925 74.6223 86.6364 81.7997 86.8162C82.7129 86.8428 84.0373 86.7779 84.4751 86.2119C85.7744 84.5654 86.7267 82.6484 88.0644 80.4359C86.7118 80.3838 85.8386 80.3572 84.9762 80.3186ZM76.1135 93.4655C76.538 93.324 76.9884 93.2341 77.464 93.2341C78.0301 93.2341 78.5575 93.3498 79.0595 93.5554C79.3558 93.568 79.638 93.568 79.9343 93.5812C79.8694 93.697 79.8061 93.8002 79.7287 93.9159C80.8608 94.6617 81.6066 95.9361 81.6066 97.3894C81.6066 99.6794 79.7412 101.531 77.4649 101.531C76.1531 101.531 74.982 100.914 74.223 99.9616C73.6569 99.2548 73.3222 98.3667 73.3222 97.3894C73.3087 95.5616 74.4796 94.0183 76.1135 93.4655Z" fill="#417B5A"/>
<path d="M45.8978 30.6665C36.4172 30.1388 26.9238 29.5861 17.4306 29.1743C16.685 29.1357 15.6298 29.8813 15.1542 30.5767C12.6713 34.2295 10.2658 37.9344 7.89874 41.6519C7.61607 41.6133 7.31998 41.6008 7.02386 41.6008C3.25534 41.6008 0.193848 44.6623 0.193848 48.4308C0.193848 52.1993 3.25534 55.2608 7.02386 55.2608C10.7924 55.2608 13.8539 52.1993 13.8539 48.4308C13.8539 47.4016 13.6224 46.4245 13.2105 45.5496C14.9988 42.8092 16.7351 40.1469 18.4848 37.51C18.9352 36.828 19.7194 35.9146 20.3753 35.876C22.5495 35.7728 24.7487 36.0303 27.4119 36.1847C26.6016 37.4193 26.1252 38.1659 25.6496 38.8988C21.7394 44.9187 17.803 50.9259 13.931 56.972C13.442 57.7437 12.8121 58.9012 13.0562 59.583C13.7892 61.5508 14.9342 63.3515 16.1436 65.6415C16.8767 64.5091 17.3532 63.7761 17.8287 63.0555C22.6266 55.6842 27.6047 48.4171 32.1331 40.8918C34.1394 37.5601 36.3011 35.901 40.2372 36.7624C41.1632 36.9678 42.6294 36.5955 43.2475 35.9261C44.5468 34.5111 45.4342 32.7362 46.4894 31.115C46.1673 30.8467 46.0395 30.68 45.8978 30.6665ZM11.1666 48.7009C11.0247 50.849 9.22391 52.5602 7.03714 52.5602C4.74727 52.5602 2.89535 50.6948 2.89535 48.4184C2.89535 46.3861 4.37497 44.6885 6.3168 44.3402C6.54829 44.3017 6.79235 44.2757 7.0373 44.2757C9.32719 44.2757 11.1791 46.1411 11.1791 48.4175C11.1666 48.5081 11.1666 48.6113 11.1666 48.7009Z" fill="#417B5A"/>
<path d="M94.9834 26.5883C92.964 22.8198 90.8539 19.0889 88.7187 15.3714C89.4521 14.2776 89.8899 12.9657 89.8899 11.5507C89.8899 7.7822 86.8283 4.7207 83.06 4.7207C79.2909 4.7207 76.2296 7.7822 76.2296 11.5507C76.2296 15.2421 79.1877 18.265 82.8544 18.3807C84.3727 21.0825 85.8511 23.7062 87.2919 26.3432C87.6907 27.0637 88.141 28.1701 87.858 28.7748C86.9448 30.756 85.6978 32.5819 84.3336 34.8719C83.6135 33.5852 83.1765 32.8135 82.7387 32.0544C79.2135 25.8029 75.7154 19.5382 72.1387 13.2994C71.6883 12.5018 70.9427 11.4089 70.2346 11.3183C68.1512 11.0607 66.0157 11.2411 63.4297 11.2537C64.0981 12.4372 64.5234 13.1828 64.9479 13.9419C69.27 21.6083 73.3994 29.3778 77.9783 36.8774C79.9984 40.1964 80.4738 42.8846 77.8886 45.9723C77.2838 46.7053 76.924 48.1715 77.2326 49.0211C77.8886 50.822 79.0462 52.4426 79.9984 54.1275C80.3714 53.9471 80.5895 53.9086 80.6536 53.7803C85.5165 45.6121 90.391 37.457 95.1515 29.2363C95.5486 28.6074 95.3821 27.3213 94.9834 26.5883ZM87.0723 12.6186C86.6094 14.3934 84.9887 15.7061 83.0584 15.7061C82.3384 15.7061 81.6434 15.5131 81.0523 15.1919C79.7787 14.4849 78.9164 13.121 78.9164 11.5642V11.4099C79.0063 9.19718 80.8334 7.42244 83.0584 7.42244C85.3484 7.42244 87.2005 9.28789 87.2005 11.5642C87.2138 11.9241 87.1622 12.2714 87.0723 12.6186Z" fill="#417B5A"/>
</g>
</g>
<path d="M40.1959 140.592C39.443 140.592 38.7798 140.556 38.2062 140.484C37.6505 140.412 37.1754 140.305 36.7811 140.161C36.3867 140.036 36.073 139.875 35.84 139.677C36.0551 139.426 36.2433 139.166 36.4046 138.898C36.566 138.629 36.7004 138.315 36.808 137.956C36.9334 137.58 37.05 137.15 37.1575 136.666L39.0935 126.663C39.2548 125.928 39.4699 125.31 39.7388 124.808C40.0077 124.288 40.3304 123.858 40.7068 123.517L40.6799 123.463C40.4827 123.463 40.2856 123.49 40.0884 123.544C39.9091 123.58 39.7299 123.625 39.5506 123.679C38.7798 123.84 38.0717 124.136 37.4264 124.566C36.799 124.978 36.2971 125.525 35.9206 126.206C35.5621 126.869 35.3829 127.667 35.3829 128.599C35.3829 129.119 35.4366 129.594 35.5442 130.024C35.6697 130.437 35.8848 130.912 36.1895 131.449C35.9923 131.647 35.7772 131.799 35.5442 131.907C35.3112 131.996 35.0423 132.041 34.7375 132.041C34.1639 132.041 33.6889 131.898 33.3124 131.611C32.9539 131.306 32.685 130.903 32.5058 130.401C32.3265 129.899 32.2369 129.343 32.2369 128.734C32.2369 127.819 32.452 126.941 32.8822 126.099C33.3304 125.256 33.9846 124.512 34.8451 123.867C35.7234 123.221 36.79 122.711 38.0448 122.334C39.3176 121.94 40.7875 121.743 42.4546 121.743C44.3547 121.743 45.9501 122.003 47.2408 122.522C48.5314 123.042 49.5084 123.831 50.1716 124.889C50.8528 125.928 51.1934 127.255 51.1934 128.868C51.1934 130.428 50.9335 131.907 50.4136 133.305C49.9117 134.703 49.1768 135.958 48.2088 137.069C47.2587 138.163 46.1025 139.023 44.7401 139.65C43.3957 140.278 41.881 140.592 40.1959 140.592ZM40.169 138.763C41.4776 138.763 42.6249 138.485 43.6108 137.93C44.5967 137.356 45.4213 136.585 46.0846 135.617C46.7478 134.649 47.2408 133.547 47.5634 132.31C47.904 131.055 48.0743 129.755 48.0743 128.411C48.0743 127.371 47.8861 126.493 47.5097 125.776C47.1511 125.059 46.6134 124.512 45.8963 124.136C45.1793 123.741 44.3099 123.517 43.2881 123.463C43.0909 123.589 42.9296 123.759 42.8041 123.974C42.6966 124.172 42.6159 124.422 42.5621 124.727L39.9808 137.553C39.927 137.894 39.8464 138.154 39.7388 138.333C39.6492 138.512 39.5416 138.647 39.4162 138.736C39.5237 138.754 39.6402 138.763 39.7657 138.763C39.9091 138.763 40.0436 138.763 40.169 138.763ZM55.9082 129.513C55.3704 129.513 54.9133 129.379 54.5369 129.11C54.1604 128.841 53.8736 128.456 53.6764 127.954C53.4972 127.452 53.4165 126.869 53.4344 126.206C53.4523 125.399 53.6674 124.602 54.0797 123.813C54.51 123.024 55.1553 122.379 56.0157 121.877C56.8941 121.357 58.0055 121.097 59.3499 121.097C60.2821 121.097 61.1784 121.169 62.0388 121.312C62.9172 121.456 63.7686 121.608 64.5932 121.769C65.4357 121.913 66.2514 121.985 67.0401 121.985C67.7213 121.985 68.3218 121.931 68.8416 121.823C69.3794 121.716 69.8813 121.438 70.3474 120.99C70.4729 121.133 70.5804 121.33 70.6701 121.581C70.7597 121.814 70.8045 122.047 70.8045 122.28C70.8045 122.639 70.7149 122.997 70.5356 123.356C70.3564 123.696 70.0696 123.983 69.6752 124.216C69.2987 124.431 68.7968 124.539 68.1694 124.539C67.6854 124.539 67.1566 124.476 66.583 124.351C66.0273 124.207 65.4178 124.019 64.7546 123.786C64.0913 123.535 63.3653 123.257 62.5766 122.953L62.5497 122.818C62.0657 122.639 61.6444 122.531 61.2859 122.495C60.9453 122.442 60.542 122.415 60.0759 122.415C59.0004 122.415 58.1489 122.755 57.5215 123.437C56.8941 124.118 56.5714 125.068 56.5535 126.287C56.5356 126.807 56.5804 127.309 56.6879 127.793C56.8134 128.277 56.9927 128.743 57.2257 129.191C57.0285 129.298 56.8045 129.379 56.5535 129.433C56.3205 129.487 56.1054 129.513 55.9082 129.513ZM58.0862 141.318C57.7456 141.318 57.4229 141.255 57.1182 141.129C56.8134 141.004 56.6162 140.834 56.5266 140.618C56.7776 140.475 56.9837 140.296 57.1451 140.081C57.3064 139.866 57.4498 139.597 57.5753 139.274C57.7008 138.933 57.8173 138.521 57.9248 138.037L60.3448 126.475C60.5061 125.758 60.7481 125.104 61.0708 124.512C61.3935 123.921 61.8237 123.446 62.3615 123.087C62.8992 122.711 63.5535 122.504 64.3243 122.469L60.8557 138.629C60.7302 139.256 60.551 139.767 60.3179 140.161C60.0849 140.574 59.7801 140.869 59.4037 141.049C59.0452 141.228 58.606 141.318 58.0862 141.318ZM65.373 132.122C65.0145 132.122 64.638 132.104 64.2437 132.068C63.8672 132.032 63.4729 131.978 63.0606 131.907C62.6483 131.817 62.227 131.718 61.7968 131.611L62.227 129.836C62.5497 129.854 62.8723 129.872 63.195 129.89C63.5177 129.908 63.8403 129.926 64.163 129.944C64.4857 129.944 64.7904 129.944 65.0772 129.944C65.4895 129.944 65.9018 129.935 66.3141 129.917C66.7443 129.899 67.1835 129.881 67.6316 129.863C67.6496 129.971 67.6675 130.069 67.6854 130.159C67.7033 130.248 67.7123 130.338 67.7123 130.428C67.6944 130.983 67.4703 131.405 67.0401 131.691C66.6099 131.978 66.0542 132.122 65.373 132.122ZM73.607 129.513C73.0872 129.513 72.639 129.379 72.2626 129.11C71.8862 128.841 71.5993 128.456 71.4022 127.954C71.2229 127.452 71.1422 126.869 71.1602 126.206C71.1602 125.399 71.3663 124.602 71.7786 123.813C72.1909 123.024 72.8273 122.379 73.6877 121.877C74.5481 121.357 75.6237 121.097 76.9143 121.097C77.8823 121.097 78.7965 121.169 79.657 121.312C80.5174 121.456 81.351 121.608 82.1576 121.769C82.9643 121.913 83.771 121.985 84.5776 121.985C85.2588 121.985 85.8683 121.931 86.406 121.823C86.9438 121.716 87.4457 121.438 87.9118 120.99C88.0552 121.133 88.1717 121.33 88.2614 121.581C88.351 121.814 88.3958 122.065 88.3958 122.334C88.3958 122.711 88.3062 123.078 88.1269 123.437C87.9477 123.795 87.6609 124.1 87.2665 124.351C86.89 124.584 86.3881 124.7 85.7607 124.7C85.205 124.7 84.6493 124.629 84.0936 124.485C83.5558 124.324 83.0001 124.118 82.4265 123.867C81.8708 123.616 81.2434 123.347 80.5443 123.06L80.5174 122.953C80.0334 122.755 79.5674 122.621 79.1192 122.549C78.689 122.46 78.214 122.415 77.6941 122.415C76.6365 122.415 75.8029 122.755 75.1935 123.437C74.584 124.1 74.2703 125.05 74.2524 126.287C74.2344 126.807 74.2792 127.309 74.3868 127.793C74.4944 128.277 74.6736 128.743 74.9246 129.191C74.7274 129.298 74.5033 129.379 74.2524 129.433C74.0193 129.487 73.8042 129.513 73.607 129.513ZM76.7799 140.565C76.4214 140.565 76.0897 140.502 75.785 140.376C75.4803 140.251 75.2831 140.081 75.1935 139.866C75.4086 139.722 75.5968 139.543 75.7581 139.328C75.9195 139.113 76.0539 138.844 76.1615 138.521C76.269 138.181 76.3676 137.768 76.4572 137.284L78.5545 126.475C78.8055 125.202 79.2178 124.252 79.7914 123.625C80.383 122.979 81.2793 122.639 82.4803 122.603L79.4957 137.876C79.3702 138.503 79.1909 139.023 78.9579 139.435C78.7428 139.83 78.456 140.117 78.0974 140.296C77.7389 140.475 77.2997 140.565 76.7799 140.565Z" fill="#417B5A"/>
<defs>
<clipPath id="clip0_119_68">
<rect width="110.74" height="110.74" fill="white"/>
</clipPath>
<clipPath id="clip1_119_68">
<rect width="111.017" height="101.635" fill="white" transform="translate(0 2.5979)"/>
</clipPath>
</defs>
</svg>
