<svg width="24" height="24" viewBox="0 0 24 24" fill="none" xmlns="http://www.w3.org/2000/svg">
<path d="M12 12C13.3261 12 14.5979 11.4732 15.5355 10.5355C16.4732 9.59785 17 8.32608 17 7C17 5.67392 16.4732 4.40215 15.5355 3.46447C14.5979 2.52678 13.3261 2 12 2C10.6739 2 9.40215 2.52678 8.46447 3.46447C7.52678 4.40215 7 5.67392 7 7C7 8.32608 7.52678 9.59785 8.46447 10.5355C9.40215 11.4732 10.6739 12 12 12Z" fill="#00AA56"/>
<path d="M12.0002 14.5C6.99016 14.5 2.91016 17.86 2.91016 22C2.91016 22.28 3.13016 22.5 3.41016 22.5H20.5902C20.8702 22.5 21.0902 22.28 21.0902 22C21.0902 17.86 17.0102 14.5 12.0002 14.5Z" fill="#00AA56"/>
</svg>
